<?xml version="1.0" encoding="UTF-8"?>
<svg width="32" height="32" viewBox="0 0 32 32" fill="none" xmlns="http://www.w3.org/2000/svg">
  <defs>
    <linearGradient id="logoGradient" x1="0%" y1="0%" x2="100%" y2="100%">
      <stop offset="0%" style="stop-color:#1e40af;stop-opacity:1" />
      <stop offset="100%" style="stop-color:#d4af37;stop-opacity:1" />
    </linearGradient>
    <linearGradient id="roofGradient" x1="0%" y1="0%" x2="100%" y2="100%">
      <stop offset="0%" style="stop-color:#1e3a8a;stop-opacity:1" />
      <stop offset="100%" style="stop-color:#1e40af;stop-opacity:1" />
    </linearGradient>
  </defs>
  
  <!-- Background circle -->
  <circle cx="16" cy="16" r="15" fill="url(#logoGradient)" stroke="white" stroke-width="2"/>
  
  <!-- Hotel building -->
  <rect x="8" y="14" width="16" height="12" fill="white" rx="1" opacity="0.95"/>
  
  <!-- Windows with modern styling -->
  <rect x="10" y="16" width="2" height="2" fill="#1e40af" rx="0.5" opacity="0.8"/>
  <rect x="13" y="16" width="2" height="2" fill="#1e40af" rx="0.5" opacity="0.8"/>
  <rect x="17" y="16" width="2" height="2" fill="#1e40af" rx="0.5" opacity="0.8"/>
  <rect x="20" y="16" width="2" height="2" fill="#1e40af" rx="0.5" opacity="0.8"/>
  
  <rect x="10" y="19" width="2" height="2" fill="#1e40af" rx="0.5" opacity="0.8"/>
  <rect x="13" y="19" width="2" height="2" fill="#1e40af" rx="0.5" opacity="0.8"/>
  <rect x="17" y="19" width="2" height="2" fill="#1e40af" rx="0.5" opacity="0.8"/>
  <rect x="20" y="19" width="2" height="2" fill="#1e40af" rx="0.5" opacity="0.8"/>
  
  <!-- Elegant door -->
  <rect x="14.5" y="22" width="3" height="4" fill="#d4af37" rx="0.5"/>
  
  <!-- Modern roof -->
  <path d="M6 14 L16 8 L26 14 L24 14 L16 10 L8 14 Z" fill="url(#roofGradient)"/>
  
  <!-- Star accent -->
  <polygon points="16,6 16.8,7.6 18.4,7.6 17.2,8.8 17.6,10.4 16,9.6 14.4,10.4 14.8,8.8 13.6,7.6 15.2,7.6" fill="#d4af37" opacity="0.9"/>
</svg>